<mxfile host="Electron" agent="Mozilla/5.0 (Windows NT 10.0; Win64; x64) AppleWebKit/537.36 (KHTML, like Gecko) draw.io/26.2.2 Chrome/134.0.6998.178 Electron/35.1.2 Safari/537.36" version="26.2.2">
  <diagram name="Page-1" id="SCWwU3xiHEYEBDA8rmbH">
    <mxGraphModel dx="1044" dy="660" grid="1" gridSize="10" guides="1" tooltips="1" connect="1" arrows="1" fold="1" page="1" pageScale="1" pageWidth="850" pageHeight="1100" math="0" shadow="0">
      <root>
        <mxCell id="0" />
        <mxCell id="1" parent="0" />
        <mxCell id="Lb9ichVj-PXasksAvaPc-1" value="Actor" style="shape=umlActor;verticalLabelPosition=bottom;verticalAlign=top;html=1;outlineConnect=0;" vertex="1" parent="1">
          <mxGeometry x="120" y="130" width="30" height="60" as="geometry" />
        </mxCell>
        <mxCell id="Lb9ichVj-PXasksAvaPc-2" value="Frontend (UI)" style="rounded=0;whiteSpace=wrap;html=1;" vertex="1" parent="1">
          <mxGeometry x="240" y="140" width="120" height="60" as="geometry" />
        </mxCell>
        <mxCell id="Lb9ichVj-PXasksAvaPc-3" value="Backend (API Server)" style="rounded=0;whiteSpace=wrap;html=1;" vertex="1" parent="1">
          <mxGeometry x="440" y="140" width="120" height="60" as="geometry" />
        </mxCell>
        <mxCell id="Lb9ichVj-PXasksAvaPc-4" value="Database" style="rounded=0;whiteSpace=wrap;html=1;" vertex="1" parent="1">
          <mxGeometry x="640" y="140" width="120" height="60" as="geometry" />
        </mxCell>
        <mxCell id="Lb9ichVj-PXasksAvaPc-8" value="" style="endArrow=none;dashed=1;html=1;rounded=0;" edge="1" parent="1">
          <mxGeometry width="50" height="50" relative="1" as="geometry">
            <mxPoint x="135" y="800" as="sourcePoint" />
            <mxPoint x="134.5" y="210" as="targetPoint" />
          </mxGeometry>
        </mxCell>
        <mxCell id="Lb9ichVj-PXasksAvaPc-9" value="" style="endArrow=none;dashed=1;html=1;rounded=0;" edge="1" parent="1" source="Lb9ichVj-PXasksAvaPc-91">
          <mxGeometry width="50" height="50" relative="1" as="geometry">
            <mxPoint x="300" y="800" as="sourcePoint" />
            <mxPoint x="299.5" y="210" as="targetPoint" />
          </mxGeometry>
        </mxCell>
        <mxCell id="Lb9ichVj-PXasksAvaPc-10" value="" style="endArrow=none;dashed=1;html=1;rounded=0;" edge="1" parent="1">
          <mxGeometry width="50" height="50" relative="1" as="geometry">
            <mxPoint x="500" y="800" as="sourcePoint" />
            <mxPoint x="499.5" y="210" as="targetPoint" />
          </mxGeometry>
        </mxCell>
        <mxCell id="Lb9ichVj-PXasksAvaPc-11" value="" style="endArrow=none;dashed=1;html=1;rounded=0;" edge="1" parent="1">
          <mxGeometry width="50" height="50" relative="1" as="geometry">
            <mxPoint x="700" y="800" as="sourcePoint" />
            <mxPoint x="699.5" y="210" as="targetPoint" />
          </mxGeometry>
        </mxCell>
        <mxCell id="Lb9ichVj-PXasksAvaPc-12" value="" style="endArrow=classic;html=1;rounded=0;" edge="1" parent="1">
          <mxGeometry width="50" height="50" relative="1" as="geometry">
            <mxPoint x="135" y="300" as="sourcePoint" />
            <mxPoint x="295" y="300" as="targetPoint" />
          </mxGeometry>
        </mxCell>
        <mxCell id="Lb9ichVj-PXasksAvaPc-13" value="Enter Email &amp;amp;Password" style="text;html=1;align=center;verticalAlign=middle;resizable=0;points=[];autosize=1;strokeColor=none;fillColor=none;" vertex="1" parent="1">
          <mxGeometry x="140" y="270" width="150" height="30" as="geometry" />
        </mxCell>
        <mxCell id="Lb9ichVj-PXasksAvaPc-15" value="" style="endArrow=classic;html=1;rounded=0;" edge="1" parent="1">
          <mxGeometry width="50" height="50" relative="1" as="geometry">
            <mxPoint x="300" y="329.5" as="sourcePoint" />
            <mxPoint x="500" y="329.5" as="targetPoint" />
          </mxGeometry>
        </mxCell>
        <mxCell id="Lb9ichVj-PXasksAvaPc-16" value="Sign up(Email,password)" style="text;html=1;align=center;verticalAlign=middle;resizable=0;points=[];autosize=1;strokeColor=none;fillColor=none;" vertex="1" parent="1">
          <mxGeometry x="320" y="300" width="160" height="30" as="geometry" />
        </mxCell>
        <mxCell id="Lb9ichVj-PXasksAvaPc-17" value="" style="endArrow=classic;html=1;rounded=0;" edge="1" parent="1">
          <mxGeometry width="50" height="50" relative="1" as="geometry">
            <mxPoint x="500" y="340" as="sourcePoint" />
            <mxPoint x="700" y="340" as="targetPoint" />
          </mxGeometry>
        </mxCell>
        <mxCell id="Lb9ichVj-PXasksAvaPc-18" value="check if the Email&amp;nbsp;&lt;div&gt;already exists&lt;/div&gt;&lt;div&gt;&amp;nbsp;&lt;/div&gt;" style="text;html=1;align=center;verticalAlign=middle;resizable=0;points=[];autosize=1;strokeColor=none;fillColor=none;" vertex="1" parent="1">
          <mxGeometry x="550" y="300" width="120" height="60" as="geometry" />
        </mxCell>
        <mxCell id="Lb9ichVj-PXasksAvaPc-19" value="" style="endArrow=block;dashed=1;endFill=0;endSize=12;html=1;rounded=0;" edge="1" parent="1">
          <mxGeometry width="160" relative="1" as="geometry">
            <mxPoint x="700" y="434.5" as="sourcePoint" />
            <mxPoint x="500" y="434.5" as="targetPoint" />
          </mxGeometry>
        </mxCell>
        <mxCell id="Lb9ichVj-PXasksAvaPc-21" value="" style="endArrow=block;dashed=1;endFill=0;endSize=12;html=1;rounded=0;" edge="1" parent="1">
          <mxGeometry width="160" relative="1" as="geometry">
            <mxPoint x="500" y="450" as="sourcePoint" />
            <mxPoint x="300" y="450" as="targetPoint" />
          </mxGeometry>
        </mxCell>
        <mxCell id="Lb9ichVj-PXasksAvaPc-22" value="" style="endArrow=block;dashed=1;endFill=0;endSize=12;html=1;rounded=0;" edge="1" parent="1">
          <mxGeometry width="160" relative="1" as="geometry">
            <mxPoint x="300" y="475" as="sourcePoint" />
            <mxPoint x="130" y="475" as="targetPoint" />
          </mxGeometry>
        </mxCell>
        <mxCell id="Lb9ichVj-PXasksAvaPc-27" value="" style="endArrow=classic;html=1;rounded=0;" edge="1" parent="1">
          <mxGeometry width="50" height="50" relative="1" as="geometry">
            <mxPoint x="300" y="240" as="sourcePoint" />
            <mxPoint x="130" y="240" as="targetPoint" />
          </mxGeometry>
        </mxCell>
        <mxCell id="Lb9ichVj-PXasksAvaPc-36" value="If Email and password are correct&amp;nbsp;" style="shape=umlFrame;whiteSpace=wrap;html=1;pointerEvents=0;recursiveResize=0;container=1;collapsible=0;width=160;height=30;" vertex="1" parent="1">
          <mxGeometry x="120" y="410" width="610" height="310" as="geometry" />
        </mxCell>
        <mxCell id="Lb9ichVj-PXasksAvaPc-56" value="Email not found (okay to register)" style="text;html=1;align=center;verticalAlign=middle;resizable=0;points=[];autosize=1;strokeColor=none;fillColor=none;" vertex="1" parent="Lb9ichVj-PXasksAvaPc-36">
          <mxGeometry x="390" y="-2" width="200" height="30" as="geometry" />
        </mxCell>
        <mxCell id="Lb9ichVj-PXasksAvaPc-24" value="Show Confirmation and&lt;div&gt;&amp;nbsp;Redirect&amp;nbsp;&lt;span style=&quot;background-color: transparent; color: light-dark(rgb(0, 0, 0), rgb(255, 255, 255));&quot;&gt;to Dashboard&lt;/span&gt;&lt;/div&gt;" style="text;html=1;align=center;verticalAlign=middle;resizable=0;points=[];autosize=1;strokeColor=none;fillColor=none;" vertex="1" parent="Lb9ichVj-PXasksAvaPc-36">
          <mxGeometry x="25" y="28" width="150" height="40" as="geometry" />
        </mxCell>
        <mxCell id="Lb9ichVj-PXasksAvaPc-23" value="Registration Successful" style="text;html=1;align=center;verticalAlign=middle;resizable=0;points=[];autosize=1;strokeColor=none;fillColor=none;" vertex="1" parent="Lb9ichVj-PXasksAvaPc-36">
          <mxGeometry x="220" y="10" width="150" height="30" as="geometry" />
        </mxCell>
        <mxCell id="Lb9ichVj-PXasksAvaPc-59" value="Store Email &amp;amp; Hashed Password&lt;div&gt;&lt;br&gt;&lt;/div&gt;" style="text;html=1;align=center;verticalAlign=middle;resizable=0;points=[];autosize=1;strokeColor=none;fillColor=none;" vertex="1" parent="Lb9ichVj-PXasksAvaPc-36">
          <mxGeometry x="380" y="57" width="200" height="40" as="geometry" />
        </mxCell>
        <mxCell id="Lb9ichVj-PXasksAvaPc-69" value="" style="endArrow=classic;html=1;rounded=0;exitX=0.018;exitY=-0.09;exitDx=0;exitDy=0;exitPerimeter=0;" edge="1" parent="Lb9ichVj-PXasksAvaPc-36">
          <mxGeometry width="50" height="50" relative="1" as="geometry">
            <mxPoint x="381.9999999999999" y="58.20000000000009" as="sourcePoint" />
            <mxPoint x="578" y="58" as="targetPoint" />
          </mxGeometry>
        </mxCell>
        <mxCell id="Lb9ichVj-PXasksAvaPc-38" value="" style="line;strokeWidth=1;dashed=1;labelPosition=center;verticalLabelPosition=bottom;align=left;verticalAlign=top;spacingLeft=20;spacingTop=15;html=1;whiteSpace=wrap;" vertex="1" parent="Lb9ichVj-PXasksAvaPc-36">
          <mxGeometry y="160" width="610" height="10" as="geometry" />
        </mxCell>
        <mxCell id="Lb9ichVj-PXasksAvaPc-39" value="else" style="text;html=1;align=center;verticalAlign=middle;resizable=0;points=[];autosize=1;strokeColor=none;fillColor=none;fontSize=17;" vertex="1" parent="Lb9ichVj-PXasksAvaPc-36">
          <mxGeometry y="161" width="50" height="30" as="geometry" />
        </mxCell>
        <mxCell id="Lb9ichVj-PXasksAvaPc-44" value="" style="endArrow=classic;html=1;rounded=0;" edge="1" parent="Lb9ichVj-PXasksAvaPc-36">
          <mxGeometry width="50" height="50" relative="1" as="geometry">
            <mxPoint x="180" y="210" as="sourcePoint" />
            <mxPoint x="20" y="210" as="targetPoint" />
          </mxGeometry>
        </mxCell>
        <mxCell id="Lb9ichVj-PXasksAvaPc-45" value="Show &quot;Email Already in use&quot;" style="text;html=1;align=center;verticalAlign=middle;resizable=0;points=[];autosize=1;strokeColor=none;fillColor=none;" vertex="1" parent="Lb9ichVj-PXasksAvaPc-36">
          <mxGeometry x="15" y="180" width="170" height="30" as="geometry" />
        </mxCell>
        <mxCell id="Lb9ichVj-PXasksAvaPc-58" value="" style="endArrow=classic;html=1;rounded=0;" edge="1" parent="Lb9ichVj-PXasksAvaPc-36">
          <mxGeometry width="50" height="50" relative="1" as="geometry">
            <mxPoint x="380" y="116" as="sourcePoint" />
            <mxPoint x="580" y="116" as="targetPoint" />
          </mxGeometry>
        </mxCell>
        <mxCell id="Lb9ichVj-PXasksAvaPc-61" value="" style="endArrow=block;dashed=1;endFill=0;endSize=12;html=1;rounded=0;" edge="1" parent="Lb9ichVj-PXasksAvaPc-36">
          <mxGeometry width="160" relative="1" as="geometry">
            <mxPoint x="580" y="183" as="sourcePoint" />
            <mxPoint x="380" y="182.5" as="targetPoint" />
          </mxGeometry>
        </mxCell>
        <mxCell id="Lb9ichVj-PXasksAvaPc-63" value="" style="endArrow=classic;html=1;rounded=0;" edge="1" parent="Lb9ichVj-PXasksAvaPc-36" target="Lb9ichVj-PXasksAvaPc-45">
          <mxGeometry width="50" height="50" relative="1" as="geometry">
            <mxPoint x="380" y="195" as="sourcePoint" />
            <mxPoint x="190" y="195" as="targetPoint" />
          </mxGeometry>
        </mxCell>
        <mxCell id="Lb9ichVj-PXasksAvaPc-62" value="Email already exists" style="text;html=1;align=center;verticalAlign=middle;resizable=0;points=[];autosize=1;strokeColor=none;fillColor=none;" vertex="1" parent="Lb9ichVj-PXasksAvaPc-36">
          <mxGeometry x="435" y="158" width="130" height="30" as="geometry" />
        </mxCell>
        <mxCell id="Lb9ichVj-PXasksAvaPc-64" value="Return Error message" style="text;html=1;align=center;verticalAlign=middle;resizable=0;points=[];autosize=1;strokeColor=none;fillColor=none;" vertex="1" parent="Lb9ichVj-PXasksAvaPc-36">
          <mxGeometry x="210" y="168" width="140" height="30" as="geometry" />
        </mxCell>
        <mxCell id="Lb9ichVj-PXasksAvaPc-75" value="" style="endArrow=block;dashed=1;endFill=0;endSize=12;html=1;rounded=0;" edge="1" parent="Lb9ichVj-PXasksAvaPc-36">
          <mxGeometry width="160" relative="1" as="geometry">
            <mxPoint x="580" y="230.5" as="sourcePoint" />
            <mxPoint x="380" y="230" as="targetPoint" />
          </mxGeometry>
        </mxCell>
        <mxCell id="Lb9ichVj-PXasksAvaPc-76" value="Acoount Not Found" style="text;html=1;align=center;verticalAlign=middle;resizable=0;points=[];autosize=1;strokeColor=none;fillColor=none;" vertex="1" parent="Lb9ichVj-PXasksAvaPc-36">
          <mxGeometry x="410" y="198" width="130" height="30" as="geometry" />
        </mxCell>
        <mxCell id="Lb9ichVj-PXasksAvaPc-78" value="wrong Email or Password" style="text;html=1;align=center;verticalAlign=middle;resizable=0;points=[];autosize=1;strokeColor=none;fillColor=none;" vertex="1" parent="Lb9ichVj-PXasksAvaPc-36">
          <mxGeometry x="190" y="220" width="160" height="30" as="geometry" />
        </mxCell>
        <mxCell id="Lb9ichVj-PXasksAvaPc-79" value="" style="endArrow=block;dashed=1;endFill=0;endSize=12;html=1;rounded=0;" edge="1" parent="Lb9ichVj-PXasksAvaPc-36">
          <mxGeometry width="160" relative="1" as="geometry">
            <mxPoint x="380" y="250.5" as="sourcePoint" />
            <mxPoint x="180" y="250" as="targetPoint" />
          </mxGeometry>
        </mxCell>
        <mxCell id="Lb9ichVj-PXasksAvaPc-80" value="" style="endArrow=block;dashed=1;endFill=0;endSize=12;html=1;rounded=0;entryX=-0.017;entryY=1.093;entryDx=0;entryDy=0;entryPerimeter=0;" edge="1" parent="Lb9ichVj-PXasksAvaPc-36" target="Lb9ichVj-PXasksAvaPc-81">
          <mxGeometry width="160" relative="1" as="geometry">
            <mxPoint x="180" y="280" as="sourcePoint" />
            <mxPoint x="10" y="280" as="targetPoint" />
          </mxGeometry>
        </mxCell>
        <mxCell id="Lb9ichVj-PXasksAvaPc-81" value="Display &quot;Errror message&quot;" style="text;html=1;align=center;verticalAlign=middle;resizable=0;points=[];autosize=1;strokeColor=none;fillColor=none;" vertex="1" parent="Lb9ichVj-PXasksAvaPc-36">
          <mxGeometry x="20" y="250" width="160" height="30" as="geometry" />
        </mxCell>
        <mxCell id="Lb9ichVj-PXasksAvaPc-83" value="" style="endArrow=classic;html=1;rounded=0;exitX=0.018;exitY=-0.09;exitDx=0;exitDy=0;exitPerimeter=0;" edge="1" parent="Lb9ichVj-PXasksAvaPc-36">
          <mxGeometry width="50" height="50" relative="1" as="geometry">
            <mxPoint x="381.7999999999999" y="82.20000000000009" as="sourcePoint" />
            <mxPoint x="578.1999999999999" y="82" as="targetPoint" />
          </mxGeometry>
        </mxCell>
        <mxCell id="Lb9ichVj-PXasksAvaPc-84" value="Compare the Hashed Password" style="text;html=1;align=center;verticalAlign=middle;resizable=0;points=[];autosize=1;strokeColor=none;fillColor=none;" vertex="1" parent="Lb9ichVj-PXasksAvaPc-36">
          <mxGeometry x="385" y="88" width="190" height="30" as="geometry" />
        </mxCell>
        <mxCell id="Lb9ichVj-PXasksAvaPc-85" value="" style="endArrow=block;dashed=1;endFill=0;endSize=12;html=1;rounded=0;" edge="1" parent="Lb9ichVj-PXasksAvaPc-36">
          <mxGeometry width="160" relative="1" as="geometry">
            <mxPoint x="375" y="125.5" as="sourcePoint" />
            <mxPoint x="190" y="125" as="targetPoint" />
          </mxGeometry>
        </mxCell>
        <mxCell id="Lb9ichVj-PXasksAvaPc-71" value="Hash Password" style="text;html=1;align=center;verticalAlign=middle;resizable=0;points=[];autosize=1;strokeColor=none;fillColor=none;" vertex="1" parent="Lb9ichVj-PXasksAvaPc-36">
          <mxGeometry x="420" y="28" width="110" height="30" as="geometry" />
        </mxCell>
        <mxCell id="Lb9ichVj-PXasksAvaPc-65" value="Grant access to main page" style="text;html=1;align=center;verticalAlign=middle;resizable=0;points=[];autosize=1;strokeColor=none;fillColor=none;" vertex="1" parent="Lb9ichVj-PXasksAvaPc-36">
          <mxGeometry x="15" y="118" width="170" height="30" as="geometry" />
        </mxCell>
        <mxCell id="Lb9ichVj-PXasksAvaPc-88" value="" style="endArrow=classic;html=1;rounded=0;" edge="1" parent="Lb9ichVj-PXasksAvaPc-36">
          <mxGeometry width="50" height="50" relative="1" as="geometry">
            <mxPoint x="180" y="148" as="sourcePoint" />
            <mxPoint x="15" y="148" as="targetPoint" />
          </mxGeometry>
        </mxCell>
        <mxCell id="Lb9ichVj-PXasksAvaPc-93" value="" style="html=1;points=[[0,0,0,0,5],[0,1,0,0,-5],[1,0,0,0,5],[1,1,0,0,-5]];perimeter=orthogonalPerimeter;outlineConnect=0;targetShapes=umlLifeline;portConstraint=eastwest;newEdgeStyle={&quot;curved&quot;:0,&quot;rounded&quot;:0};" vertex="1" parent="Lb9ichVj-PXasksAvaPc-36">
          <mxGeometry x="375" y="-95" width="10" height="345" as="geometry" />
        </mxCell>
        <mxCell id="Lb9ichVj-PXasksAvaPc-94" value="" style="html=1;points=[[0,0,0,0,5],[0,1,0,0,-5],[1,0,0,0,5],[1,1,0,0,-5]];perimeter=orthogonalPerimeter;outlineConnect=0;targetShapes=umlLifeline;portConstraint=eastwest;newEdgeStyle={&quot;curved&quot;:0,&quot;rounded&quot;:0};" vertex="1" parent="Lb9ichVj-PXasksAvaPc-36">
          <mxGeometry x="575" y="-80" width="10" height="315" as="geometry" />
        </mxCell>
        <mxCell id="Lb9ichVj-PXasksAvaPc-46" value="" style="endArrow=classic;html=1;rounded=0;" edge="1" parent="1">
          <mxGeometry width="50" height="50" relative="1" as="geometry">
            <mxPoint x="300" y="377" as="sourcePoint" />
            <mxPoint x="500" y="377" as="targetPoint" />
          </mxGeometry>
        </mxCell>
        <mxCell id="Lb9ichVj-PXasksAvaPc-47" value="Login(Email,password)" style="text;html=1;align=center;verticalAlign=middle;resizable=0;points=[];autosize=1;strokeColor=none;fillColor=none;" vertex="1" parent="1">
          <mxGeometry x="325" y="350" width="150" height="30" as="geometry" />
        </mxCell>
        <mxCell id="Lb9ichVj-PXasksAvaPc-54" value="&lt;b&gt;&lt;font style=&quot;font-size: 15px;&quot;&gt;SEQUENCE DIAGRAM FOR THE RECIPE GENERATING WEB APP (Login/Sign Up Usecase)&lt;/font&gt;&lt;/b&gt;" style="text;html=1;align=center;verticalAlign=middle;resizable=0;points=[];autosize=1;strokeColor=none;fillColor=none;" vertex="1" parent="1">
          <mxGeometry x="77.5" y="60" width="670" height="30" as="geometry" />
        </mxCell>
        <mxCell id="Lb9ichVj-PXasksAvaPc-55" value="Prompt for Email &amp;amp; Password" style="text;html=1;align=center;verticalAlign=middle;resizable=0;points=[];autosize=1;strokeColor=none;fillColor=none;" vertex="1" parent="1">
          <mxGeometry x="125" y="210" width="180" height="30" as="geometry" />
        </mxCell>
        <mxCell id="Lb9ichVj-PXasksAvaPc-87" value="Account exist" style="text;html=1;align=center;verticalAlign=middle;resizable=0;points=[];autosize=1;strokeColor=none;fillColor=none;" vertex="1" parent="1">
          <mxGeometry x="365" y="508" width="90" height="30" as="geometry" />
        </mxCell>
        <mxCell id="Lb9ichVj-PXasksAvaPc-92" value="" style="endArrow=none;dashed=1;html=1;rounded=0;" edge="1" parent="1" target="Lb9ichVj-PXasksAvaPc-91">
          <mxGeometry width="50" height="50" relative="1" as="geometry">
            <mxPoint x="300" y="800" as="sourcePoint" />
            <mxPoint x="299.5" y="210" as="targetPoint" />
          </mxGeometry>
        </mxCell>
        <mxCell id="Lb9ichVj-PXasksAvaPc-91" value="" style="html=1;points=[[0,0,0,0,5],[0,1,0,0,-5],[1,0,0,0,5],[1,1,0,0,-5]];perimeter=orthogonalPerimeter;outlineConnect=0;targetShapes=umlLifeline;portConstraint=eastwest;newEdgeStyle={&quot;curved&quot;:0,&quot;rounded&quot;:0};" vertex="1" parent="1">
          <mxGeometry x="295" y="240" width="10" height="470" as="geometry" />
        </mxCell>
      </root>
    </mxGraphModel>
  </diagram>
</mxfile>
